<svg width="37" height="36" viewBox="0 0 37 36" fill="none" xmlns="http://www.w3.org/2000/svg">
<rect x="0.5" width="36" height="36" rx="18" fill="white"/>
<path d="M21.5 28V24C21.6391 22.7473 21.2799 21.4901 20.5 20.5C23.5 20.5 26.5 18.5 26.5 15C26.58 13.75 26.23 12.52 25.5 11.5C25.78 10.35 25.78 9.15 25.5 8C25.5 8 24.5 8 22.5 9.5C19.86 9 17.14 9 14.5 9.5C12.5 8 11.5 8 11.5 8C11.2 9.15 11.2 10.35 11.5 11.5C10.7719 12.5159 10.4185 13.7528 10.5 15C10.5 18.5 13.5 20.5 16.5 20.5C16.11 20.99 15.82 21.55 15.65 22.15C15.48 22.75 15.43 23.38 15.5 24V28" fill="#121212"/>
<path d="M21.5 28V24C21.6391 22.7473 21.2799 21.4901 20.5 20.5C23.5 20.5 26.5 18.5 26.5 15C26.58 13.75 26.23 12.52 25.5 11.5C25.78 10.35 25.78 9.15 25.5 8C25.5 8 24.5 8 22.5 9.5C19.86 9 17.14 9 14.5 9.5C12.5 8 11.5 8 11.5 8C11.2 9.15 11.2 10.35 11.5 11.5C10.7719 12.5159 10.4185 13.7528 10.5 15C10.5 18.5 13.5 20.5 16.5 20.5C16.11 20.99 15.82 21.55 15.65 22.15C15.48 22.75 15.43 23.38 15.5 24V28" stroke="black" stroke-width="2" stroke-linecap="round" stroke-linejoin="round"/>
<path d="M15.5 24C10.99 26 10.5 22 8.5 22" stroke="black" stroke-width="2" stroke-linecap="round" stroke-linejoin="round"/>
</svg>
